<?xml version="1.0" encoding="UTF-8" standalone="no"?>
<!-- Created with Serif DrawPlus 11, 0, 3, 23 (Feb 25, 14:12:55) (http://www.serif.com) -->
<svg version="1.1" xmlns="http://www.w3.org/2000/svg" xmlns:xlink="http://www.w3.org/1999/xlink" width="905.049" height="766.677">
	<g id="dp_group001" transform="matrix(1,0,0,1,-26.6,-58.4253)">
		<text id="dp_text001" transform="matrix(1,9.4369e-016,-8.88178e-016,1,280.338,89.0639)" xml:space="preserve" fill="black" font-family="Arial" font-size="31" font-weight="400" x="0" y="0">radius of  </text>
		<text id="dp_text002" transform="matrix(1,9.4369e-016,-8.88178e-016,1,280.338,89.0639)" xml:space="preserve" fill="black" font-family="Arial" font-size="31" font-weight="400" x="0" y="35.1307">curvature |</text>
		<text id="dp_text003" transform="matrix(1,9.4369e-016,-8.88178e-016,1,280.338,89.0639)" xml:space="preserve" fill="black" font-family="Arial" font-size="31" font-weight="700" x="144.365" y="35.1307">r</text>
		<text id="dp_text004" transform="matrix(1,9.4369e-016,-8.88178e-016,1,280.338,89.0639)" xml:space="preserve" fill="black" font-family="Arial" font-size="31" font-weight="400" x="156.293" y="35.1307">|  </text>
		<text id="dp_text005" transform="matrix(1,9.4369e-016,-8.88178e-016,1,583.939,251.341)" xml:space="preserve" fill="#ee0000" font-family="Arial" font-size="31" font-weight="400" x="0" y="0">Force </text>
		<text id="dp_text006" transform="matrix(1,9.4369e-016,-8.88178e-016,1,583.939,251.341)" xml:space="preserve" fill="#ee0000" font-family="Arial" font-size="31" font-weight="700" x="86.928" y="0">F </text>
		<text id="dp_text007" transform="matrix(1,9.4369e-016,-8.88178e-016,1,583.939,251.341)" xml:space="preserve" fill="#ee0000" font-family="Arial" font-size="31" font-weight="400" x="114.132" y="0">directed towards  </text>
		<text id="dp_text008" transform="matrix(1,9.4369e-016,-8.88178e-016,1,583.939,251.341)" xml:space="preserve" fill="#ee0000" font-family="Arial" font-size="31" font-weight="400" x="0" y="35.1307">helical axis, parallel to </text>
		<text id="dp_text009" transform="matrix(1,9.4369e-016,-8.88178e-016,1,583.939,251.341)" xml:space="preserve" fill="#ee0000" font-family="Arial" font-size="31" font-weight="700" x="308.412" y="35.1307">B</text>
		<text id="dp_text010" transform="matrix(1,9.4369e-016,-8.88178e-016,1,583.939,251.341)" xml:space="preserve" fill="#ee0000" font-family="Arial" font-size="31" font-weight="400" x="330.552" y="35.1307"> </text>
		<text id="dp_text011" transform="matrix(1,9.4369e-016,-8.88178e-016,1,77.1341,125.665)" xml:space="preserve" fill="#152ad4" font-family="Arial" font-size="31" font-weight="400" x="0" y="0">helical path</text>
		<text id="dp_text012" transform="matrix(1,9.4369e-016,-8.88178e-016,1,77.1341,125.665)" xml:space="preserve" fill="#152ad4" font-family="Arial" font-size="31" font-weight="700" x="155.145" y="0"> </text>
		<text id="dp_text013" transform="matrix(1,9.4369e-016,-8.88178e-016,1,237.113,798.633)" xml:space="preserve" fill="#ee0000" font-family="Arial" font-size="31" font-weight="700" x="0" y="0">F </text>
		<text id="dp_text014" transform="matrix(1,9.4369e-016,-8.88178e-016,1,237.113,798.633)" xml:space="preserve" fill="black" font-family="Arial" font-size="31" font-weight="400" x="27.204" y="0">=</text>
		<text id="dp_text015" transform="matrix(1,9.4369e-016,-8.88178e-016,1,237.113,798.633)" xml:space="preserve" fill="#ee0000" font-family="Arial" font-size="31" font-weight="700" x="45.0973" y="0"> </text>
		<text id="dp_text016" transform="matrix(1,9.4369e-016,-8.88178e-016,1,340.994,779.595)" xml:space="preserve" fill="#152ad4" font-family="Arial" font-size="31" font-weight="400" x="0" y="0">(</text>
		<text id="dp_text017" transform="matrix(1,9.4369e-016,-8.88178e-016,1,340.994,779.595)" xml:space="preserve" fill="#152ad4" font-family="Arial" font-size="31" font-weight="700" x="10.212" y="0">v </text>
		<text id="dp_text018" transform="matrix(1,9.4369e-016,-8.88178e-016,1,378.994,779.595)" xml:space="preserve" fill="#152ad4" font-family="Arial" font-size="31" font-weight="700" x="0" y="0">v</text>
		<text id="dp_text019" transform="matrix(1,9.4369e-016,-8.88178e-016,1,378.994,779.595)" xml:space="preserve" fill="#152ad4" font-family="Arial" font-size="31" font-weight="400" x="17.076" y="0">)</text>
		<text id="dp_text020" transform="matrix(1,9.4369e-016,-8.88178e-016,1,378.994,779.595)" xml:space="preserve" fill="#152ad4" font-family="Arial" font-size="31" font-weight="700" x="27.288" y="0"> </text>
		<g id="dp_group022">
			<path id="dp_path023" fill="#152ad4" fill-rule="evenodd" d="M 373.02,769.659 C 374.015,769.659 374.82,770.464 374.82,771.459 C 374.82,772.453 374.015,773.259 373.02,773.259 C 372.025,773.259 371.22,772.453 371.22,771.459 C 371.22,770.464 372.025,769.659 373.02,769.659 Z "/>
			<g id="dp_group024">
				<g id="dp_group025">
					<path id="dp_path026" fill="#152ad4" d="M 373.097,769.993 L 373.171,769.999 L 373.247,770.009 L 373.319,770.021 L 373.387,770.036 L 373.456,770.057 L 373.525,770.081 L 373.592,770.107 L 373.656,770.136 L 373.721,770.169 L 373.781,770.204 L 373.84,770.241 L 373.897,770.283 L 373.953,770.325 L 374.008,770.373 L 374.059,770.42 L 374.105,770.471 L 374.153,770.525 L 374.196,770.581 L 374.237,770.639 L 374.275,770.697 L 374.309,770.757 L 374.343,770.823 L 374.372,770.887 L 374.397,770.953 L 374.421,771.023 L 374.443,771.092 L 374.457,771.16 L 374.469,771.232 L 374.48,771.308 L 374.485,771.381 L 374.487,771.459 L 374.485,771.536 L 374.48,771.609 L 374.469,771.685 L 374.457,771.757 L 374.443,771.825 L 374.421,771.895 L 374.397,771.964 L 374.372,772.031 L 374.343,772.095 L 374.309,772.16 L 374.275,772.22 L 374.237,772.279 L 374.196,772.336 L 374.153,772.392 L 374.105,772.447 L 374.059,772.497 L 374.008,772.544 L 373.953,772.592 L 373.897,772.635 L 373.84,772.676 L 373.781,772.713 L 373.721,772.748 L 373.656,772.781 L 373.592,772.811 L 373.525,772.836 L 373.456,772.86 L 373.387,772.881 L 373.319,772.896 L 373.247,772.908 L 373.171,772.919 L 373.097,772.924 L 373.02,772.925 L 372.943,772.924 L 372.869,772.919 L 372.793,772.908 L 372.721,772.896 L 372.653,772.881 L 372.584,772.86 L 372.515,772.836 L 372.448,772.811 L 372.384,772.781 L 372.319,772.748 L 372.259,772.713 L 372.2,772.676 L 372.143,772.635 L 372.087,772.592 L 372.032,772.544 L 371.981,772.497 L 371.935,772.447 L 371.887,772.392 L 371.844,772.336 L 371.803,772.279 L 371.765,772.22 L 371.731,772.16 L 371.697,772.095 L 371.668,772.031 L 371.643,771.964 L 371.619,771.895 L 371.597,771.825 L 371.583,771.757 L 371.571,771.685 L 371.56,771.609 L 371.555,771.536 L 371.553,771.459 L 371.555,771.381 L 371.56,771.308 L 371.571,771.232 L 371.583,771.16 L 371.597,771.092 L 371.619,771.023 L 371.643,770.953 L 371.668,770.887 L 371.697,770.823 L 371.731,770.757 L 371.765,770.697 L 371.803,770.639 L 371.844,770.581 L 371.887,770.525 L 371.935,770.471 L 371.981,770.42 L 372.032,770.373 L 372.087,770.325 L 372.143,770.283 L 372.2,770.241 L 372.259,770.204 L 372.319,770.169 L 372.384,770.136 L 372.448,770.107 L 372.515,770.081 L 372.584,770.057 L 372.653,770.036 L 372.721,770.021 L 372.793,770.009 L 372.869,769.999 L 372.943,769.993 L 373.02,769.992 L 373.097,769.993 L 373.129,769.329 L 373.02,769.325 L 372.911,769.329 L 372.803,769.337 L 372.697,769.351 L 372.593,769.368 L 372.485,769.393 L 372.384,769.423 L 372.288,769.455 L 372.189,769.493 L 372.096,769.536 L 372.004,769.583 L 371.915,769.633 L 371.827,769.689 L 371.743,769.749 L 371.663,769.813 L 371.587,769.88 L 371.512,769.951 L 371.441,770.025 L 371.375,770.101 L 371.311,770.181 L 371.251,770.265 L 371.195,770.353 L 371.144,770.443 L 371.097,770.535 L 371.055,770.628 L 371.016,770.727 L 370.984,770.823 L 370.955,770.924 L 370.929,771.032 L 370.912,771.136 L 370.899,771.241 L 370.891,771.349 L 370.887,771.459 L 370.891,771.568 L 370.899,771.676 L 370.912,771.781 L 370.929,771.885 L 370.955,771.993 L 370.984,772.095 L 371.016,772.191 L 371.055,772.289 L 371.097,772.383 L 371.144,772.475 L 371.195,772.564 L 371.251,772.652 L 371.311,772.736 L 371.375,772.816 L 371.441,772.892 L 371.512,772.967 L 371.587,773.037 L 371.663,773.104 L 371.743,773.168 L 371.827,773.228 L 371.915,773.284 L 372.004,773.335 L 372.096,773.381 L 372.189,773.424 L 372.288,773.463 L 372.384,773.495 L 372.485,773.524 L 372.593,773.549 L 372.697,773.567 L 372.803,773.58 L 372.911,773.588 L 373.02,773.592 L 373.129,773.588 L 373.237,773.58 L 373.343,773.567 L 373.447,773.549 L 373.555,773.524 L 373.656,773.495 L 373.752,773.463 L 373.851,773.424 L 373.944,773.381 L 374.036,773.335 L 374.125,773.284 L 374.213,773.228 L 374.297,773.168 L 374.377,773.104 L 374.453,773.037 L 374.528,772.967 L 374.599,772.892 L 374.665,772.816 L 374.729,772.736 L 374.789,772.652 L 374.845,772.564 L 374.896,772.475 L 374.943,772.383 L 374.985,772.289 L 375.024,772.191 L 375.056,772.095 L 375.085,771.993 L 375.111,771.885 L 375.128,771.781 L 375.141,771.676 L 375.149,771.568 L 375.153,771.459 L 375.149,771.349 L 375.141,771.241 L 375.128,771.136 L 375.111,771.032 L 375.085,770.924 L 375.056,770.823 L 375.024,770.727 L 374.985,770.628 L 374.943,770.535 L 374.896,770.443 L 374.845,770.353 L 374.789,770.265 L 374.729,770.181 L 374.665,770.101 L 374.599,770.025 L 374.528,769.951 L 374.453,769.88 L 374.377,769.813 L 374.297,769.749 L 374.213,769.689 L 374.125,769.633 L 374.036,769.583 L 373.944,769.536 L 373.851,769.493 L 373.752,769.455 L 373.656,769.423 L 373.555,769.393 L 373.447,769.368 L 373.343,769.351 L 373.237,769.337 L 373.129,769.329 Z "/>
				</g>
			</g>
		</g>
		<text id="dp_text021" transform="matrix(1,9.4369e-016,-8.88178e-016,1,359.533,817.668)" xml:space="preserve" fill="black" font-family="Arial" font-size="31" font-weight="400" x="0" y="0">|</text>
		<text id="dp_text022" transform="matrix(1,9.4369e-016,-8.88178e-016,1,359.533,817.668)" xml:space="preserve" fill="black" font-family="Arial" font-size="31" font-weight="700" x="7.92533" y="0">r</text>
		<text id="dp_text023" transform="matrix(1,9.4369e-016,-8.88178e-016,1,359.533,817.668)" xml:space="preserve" fill="black" font-family="Arial" font-size="31" font-weight="400" x="19.8533" y="0">|</text>
		<text id="dp_text024" transform="matrix(1,9.4369e-016,-8.88178e-016,1,359.533,817.668)" xml:space="preserve" fill="black" font-family="Arial" font-size="31" font-weight="700" x="27.7787" y="0"> </text>
		<path id="dp_path031" fill="none" fill-rule="evenodd" stroke="#152ad4" stroke-width="2" d="M 340.993,787.029 L 403.62,787.029"/>
		<text id="dp_text025" transform="matrix(1,9.4369e-016,-8.88178e-016,1,411.387,795.499)" xml:space="preserve" fill="black" font-family="Arial" font-size="31" font-weight="700" x="0" y="0">r </text>
		<text id="dp_text026" transform="matrix(1.3352,1.26001e-015,-8.88178e-016,1,408.401,778.336)" xml:space="preserve" fill="black" font-family="Arial" font-size="23" font-weight="700" x="0" y="0">^ </text>
		<path id="dp_path034" fill="none" fill-rule="evenodd" stroke="black" stroke-width="2" d="M 292.011,787.028 L 311.439,787.028"/>
		<text id="dp_text027" transform="matrix(1,9.4369e-016,-8.88178e-016,1,312.611,794.795)" xml:space="preserve" fill="#fad44b" stroke="black" stroke-width="0.266667" font-family="Arial" font-size="31" font-weight="400" font-style="italic" x="0" y="0">m </text>
		<text id="dp_text028" transform="matrix(1,9.4369e-016,-8.88178e-016,1,481.394,791.995)" xml:space="preserve" fill="#152ad4" font-family="Arial" font-size="31" font-weight="400" x="0" y="0">(</text>
		<text id="dp_text029" transform="matrix(1,9.4369e-016,-8.88178e-016,1,481.394,791.995)" xml:space="preserve" fill="#152ad4" font-family="Arial" font-size="31" font-weight="700" x="10.212" y="0">v </text>
		<text id="dp_text030" transform="matrix(1,9.4369e-016,-8.88178e-016,1,481.394,791.995)" xml:space="preserve" fill="black" font-family="Times New Roman" font-size="31" font-weight="400" x="35.7853" y="0">×</text>
		<text id="dp_text031" transform="matrix(1,9.4369e-016,-8.88178e-016,1,481.394,791.995)" xml:space="preserve" fill="#152ad4" font-family="Times New Roman" font-size="31" font-weight="400" x="53.0253" y="0"> </text>
		<text id="dp_text032" transform="matrix(1,9.4369e-016,-8.88178e-016,1,481.394,791.995)" xml:space="preserve" fill="#152ad4" font-family="Arial" font-size="31" font-weight="700" x="60.7053" y="0">B</text>
		<text id="dp_text033" transform="matrix(1,9.4369e-016,-8.88178e-016,1,481.394,791.995)" xml:space="preserve" fill="#152ad4" font-family="Arial" font-size="31" font-weight="400" x="82.8453" y="0">)</text>
		<text id="dp_text034" transform="matrix(1,9.4369e-016,-8.88178e-016,1,481.394,791.995)" xml:space="preserve" fill="#152ad4" font-family="Arial" font-size="31" font-weight="700" x="93.0573" y="0"> </text>
		<text id="dp_text035" transform="matrix(1,9.4369e-016,-8.88178e-016,1,455.611,794.995)" xml:space="preserve" fill="#fad44b" stroke="black" stroke-width="0.266667" font-family="Arial" font-size="31" font-weight="400" font-style="italic" x="0" y="0">q </text>
		<text id="dp_text036" transform="matrix(1,0,0,1,432.82,796.699)" xml:space="preserve" fill="black" font-family="Arial" font-size="31" font-weight="400" x="0" y="0">=</text>
		<text id="dp_text037" transform="matrix(1,0,0,1,432.82,796.699)" xml:space="preserve" fill="black" font-family="Times New Roman" font-size="16" font-weight="400" x="17.8933" y="0"> </text>
		<text id="dp_text038" transform="matrix(1,9.4369e-016,-8.88178e-016,1,438.105,658.255)" xml:space="preserve" fill="#fad44b" stroke="black" stroke-width="0.266667" font-family="Arial" font-size="31" font-weight="400" x="0" y="0">charge +</text>
		<text id="dp_text039" transform="matrix(1,9.4369e-016,-8.88178e-016,1,438.105,658.255)" xml:space="preserve" fill="#fad44b" stroke="black" stroke-width="0.266667" font-family="Arial" font-size="31" font-weight="400" font-style="italic" x="120.26" y="0">q</text>
		<text id="dp_text040" transform="matrix(1,9.4369e-016,-8.88178e-016,1,438.105,658.255)" xml:space="preserve" fill="#fad44b" stroke="black" stroke-width="0.266667" font-family="Arial" font-size="31" font-weight="400" x="137.336" y="0">, </text>
		<text id="dp_text041" transform="matrix(1,9.4369e-016,-8.88178e-016,1,438.105,658.255)" xml:space="preserve" fill="#fad44b" stroke="black" stroke-width="0.266667" font-family="Arial" font-size="31" font-weight="400" x="0" y="35.1307">mass </text>
		<text id="dp_text042" transform="matrix(1,9.4369e-016,-8.88178e-016,1,438.105,658.255)" xml:space="preserve" fill="#fad44b" stroke="black" stroke-width="0.266667" font-family="Arial" font-size="31" font-weight="400" font-style="italic" x="81.7787" y="35.1307">m</text>
		<text id="dp_text043" transform="matrix(1,9.4369e-016,-8.88178e-016,1,438.105,658.255)" xml:space="preserve" fill="#fad44b" stroke="black" stroke-width="0.266667" font-family="Arial" font-size="31" font-weight="400" x="107.268" y="35.1307"> </text>
		<path id="dp_path052" fill="none" fill-rule="evenodd" stroke="#152ad4" stroke-width="1.33333" stroke-dasharray="8,8" d="M 134.919,211.548 L 309.98,336.407"/>
		<path id="dp_path053" fill="none" fill-rule="evenodd" stroke="#152ad4" stroke-width="1.33333" d="M 332.764,180.187 C 282.003,151.683 203.896,197.552 171.011,240.187 C 132.659,289.908 120.036,356.469 156.764,384.187 C 191.577,410.459 225.917,392.793 248.764,372.187 C 282.501,341.757 303.964,291.696 304.764,235.387 C 305.564,179.077 293.564,144.987 251.164,120.987"/>
		<path id="dp_path054" fill="none" fill-rule="evenodd" stroke="#152ad4" stroke-width="1.33333" d="M 414.364,239.191 C 363.603,210.687 285.496,256.556 252.611,299.191 C 214.259,348.912 201.636,415.473 238.364,443.191 C 273.177,469.463 307.517,451.797 330.364,431.191 C 364.101,400.761 385.564,350.7 386.364,294.391 C 387.164,238.081 375.164,203.991 332.764,179.991"/>
		<text id="dp_text044" transform="matrix(1,9.4369e-016,-8.88178e-016,1,635.506,618.512)" xml:space="preserve" fill="black" font-family="Arial" font-size="31" font-weight="400" x="0" y="0">(uniform) </text>
		<text id="dp_text045" transform="matrix(1,9.4369e-016,-8.88178e-016,1,635.506,618.512)" xml:space="preserve" fill="black" font-family="Arial" font-size="31" font-weight="400" x="0" y="35.1307">magnetic  </text>
		<text id="dp_text046" transform="matrix(1,9.4369e-016,-8.88178e-016,1,635.506,618.512)" xml:space="preserve" fill="black" font-family="Arial" font-size="31" font-weight="400" x="0" y="70.2613">field </text>
		<text id="dp_text047" transform="matrix(1,9.4369e-016,-8.88178e-016,1,635.506,618.512)" xml:space="preserve" fill="black" font-family="Arial" font-size="31" font-weight="700" x="64.704" y="70.2613">B </text>
		<g id="dp_group059">
			<path id="dp_path060" fill="white" fill-rule="evenodd" d="M 274.908,140.396 L 260.448,149.517 L 265.463,152.572 L 200.361,259.476 L 203.325,261.28 L 268.425,154.376 L 273.441,157.431 Z "/>
			<g id="dp_group061">
				<g id="dp_group062">
					<path id="dp_path063" fill="black" d="M 259.784,149.521 L 264.981,152.688 L 199.88,259.592 L 203.441,261.761 L 268.541,154.857 L 273.741,158.024 L 275.317,139.724 L 259.784,149.521 L 261.112,149.513 L 274.499,141.068 L 273.141,156.837 L 268.309,153.895 L 203.209,260.799 L 200.843,259.36 L 265.944,152.456 L 261.112,149.513 Z "/>
				</g>
			</g>
		</g>
		<text id="dp_text048" transform="matrix(1,9.4369e-016,-8.88178e-016,1,247.246,211.989)" xml:space="preserve" fill="black" font-family="Arial" font-size="31" font-weight="700" x="0" y="0">r </text>
		<path id="dp_path065" fill="black" fill-rule="evenodd" stroke="black" stroke-width="1.33333" d="M 427.791,510.945 L 445.597,515.411 L 437.404,526.584 Z "/>
		<path id="dp_path066" fill="none" fill-rule="evenodd" stroke="black" stroke-width="1.33333" d="M 128.564,246.267 L 273.291,348.972"/>
		<path id="dp_path067" fill="none" fill-rule="evenodd" stroke="black" stroke-width="1.33333" d="M 136.564,202.689 L 342.62,348.916"/>
		<path id="dp_path068" fill="none" fill-rule="evenodd" stroke="black" stroke-width="1.33333" d="M 191.221,182.267 L 415.811,341.647"/>
		<path id="dp_path069" fill="none" fill-rule="evenodd" stroke="black" stroke-width="1.33333" d="M 196.564,132.267 L 424.337,293.905"/>
		<path id="dp_path070" fill="none" fill-rule="evenodd" stroke="black" stroke-width="1.33333" d="M 92.564,273.267 L 277.773,404.7"/>
		<path id="dp_path071" fill="black" fill-rule="evenodd" stroke="black" stroke-width="1.33333" d="M 405.791,442.665 L 423.597,447.131 L 415.404,458.304 Z "/>
		<path id="dp_path072" fill="black" fill-rule="evenodd" stroke="black" stroke-width="1.33333" d="M 371.741,310.372 L 389.548,314.837 L 381.355,326.011 Z "/>
		<path id="dp_path073" fill="black" fill-rule="evenodd" stroke="black" stroke-width="1.33333" d="M 353.935,244.231 L 371.741,248.696 L 363.548,259.869 Z "/>
		<path id="dp_path074" fill="#02b04b" fill-rule="evenodd" fill-opacity="0.760784" stroke="black" stroke-width="1.33333" d="M 184.327,273.769 L 182.801,567.427 L 481.127,407.789 L 482.727,126.389 Z "/>
		<path id="dp_path075" fill="none" fill-rule="evenodd" stroke="black" stroke-width="1.33333" d="M 424.337,293.905 L 686.564,479.995"/>
		<path id="dp_path076" fill="none" fill-rule="evenodd" stroke="black" stroke-width="1.33333" d="M 415.811,341.647 L 681.221,529.995"/>
		<path id="dp_path077" fill="none" fill-rule="evenodd" stroke="black" stroke-width="1.33333" d="M 342.62,348.916 L 626.564,550.417"/>
		<path id="dp_path078" fill="none" fill-rule="evenodd" stroke="black" stroke-width="1.33333" d="M 273.291,348.972 L 618.564,593.995"/>
		<path id="dp_path079" fill="none" fill-rule="evenodd" stroke="black" stroke-width="1.33333" d="M 277.773,404.7 L 582.564,620.995"/>
		<path id="dp_path080" fill="black" fill-rule="evenodd" stroke="black" stroke-width="1.33333" d="M 387.812,380.988 L 405.619,385.453 L 397.425,396.627 Z "/>
		<path id="dp_path081" fill="none" fill-rule="evenodd" stroke="#152ad4" stroke-width="1.33333" d="M 587.964,542.995 C 610.927,502.995 616.201,468.065 616.764,435.821 S 603.127,371.748 577.564,357.395 C 526.803,328.891 448.696,374.76 415.811,417.395 C 377.459,467.116 364.836,533.677 401.564,561.395 C 436.377,587.667 470.717,570.001 493.564,549.395 C 527.301,518.965 548.764,468.904 549.564,412.595 C 550.364,356.285 538.364,322.195 495.964,298.195"/>
		<path id="dp_path082" fill="none" fill-rule="evenodd" stroke="#152ad4" stroke-width="1.33333" d="M 495.964,298.195 C 445.203,269.691 367.096,315.56 334.211,358.195 C 295.859,407.916 283.236,474.477 319.964,502.195 C 354.777,528.467 389.117,510.801 411.964,490.195 C 445.701,459.765 467.164,409.704 467.964,353.395 C 468.764,297.085 456.764,262.995 414.364,238.995"/>
		<path id="dp_path083" fill="#152ad4" fill-rule="evenodd" stroke="#152ad4" stroke-width="1.33333" d="M 601.241,380.417 L 615.931,391.427 L 604.052,398.559 Z "/>
		<path id="dp_path084" fill="#152ad4" fill-rule="evenodd" stroke="#152ad4" stroke-width="1.33333" d="M 440.131,392.265 L 451.052,377.509 L 458.255,389.347 Z "/>
		<path id="dp_path085" fill="#152ad4" fill-rule="evenodd" stroke="#152ad4" stroke-width="1.33333" d="M 601.241,380.417 L 615.931,391.427 L 604.052,398.559 Z "/>
		<path id="dp_path086" fill="#152ad4" fill-rule="evenodd" stroke="#152ad4" stroke-width="1.33333" d="M 501.199,301.305 L 518.717,306.788 L 509.895,317.472 Z "/>
		<path id="dp_path087" fill="#152ad4" fill-rule="evenodd" stroke="#152ad4" stroke-width="1.33333" d="M 321.085,502.195 L 303.76,496.128 L 312.936,485.745 Z "/>
		<path id="dp_path088" fill="#152ad4" fill-rule="evenodd" stroke="#152ad4" stroke-width="1.33333" d="M 312.823,172.879 L 330.607,168.323 L 328.725,182.051 Z "/>
		<path id="dp_path089" fill="#152ad4" fill-rule="evenodd" stroke="#152ad4" stroke-width="1.33333" d="M 144.039,369.629 L 129.063,359.011 L 140.751,351.568 Z "/>
		<path id="dp_path090" fill="none" fill-rule="evenodd" stroke="#152ad4" stroke-width="1.33333" stroke-dasharray="8,8" d="M 309.981,336.407 L 634.683,567.425"/>
		<text id="dp_text049" transform="matrix(1,9.4369e-016,-8.88178e-016,1,543.805,478.569)" xml:space="preserve" fill="#ee0000" font-family="Arial" font-size="31" font-weight="700" x="0" y="0">F </text>
		<g id="dp_group092">
			<path id="dp_path093" fill="black" fill-rule="evenodd" d="M 458.907,480.265 L 469.225,497.043 L 472.651,492.273 L 556.928,552.811 L 558.952,549.993 L 474.675,489.456 L 478.1,484.687 Z "/>
			<g id="dp_group094">
				<g id="dp_group095">
					<path id="dp_path096" fill="black" d="M 469.199,497.823 L 472.749,492.876 L 557.027,553.413 L 559.555,549.895 L 475.277,489.357 L 478.831,484.412 L 457.997,479.612 L 469.199,497.823 L 469.252,496.263 L 459.816,480.919 L 477.369,484.961 L 474.072,489.555 L 558.349,550.092 L 556.829,552.208 L 472.552,491.671 L 469.252,496.263 Z "/>
				</g>
			</g>
		</g>
		<text id="dp_text050" transform="matrix(1,0,0,1,451.953,467.795)" xml:space="preserve" fill="black" font-family="Arial" font-size="31" font-weight="700" x="0" y="0">B</text>
		<text id="dp_text051" transform="matrix(1,0,0,1,451.953,467.795)" xml:space="preserve" fill="black" font-family="Times New Roman" font-size="16" font-weight="400" x="22.14" y="0"> </text>
		<path id="dp_path099" fill="black" fill-rule="evenodd" d="M 541.733,500.573 C 541.631,500.165 541.497,499.761 541.335,499.365 C 541.171,498.968 540.957,498.615 540.691,498.309 C 540.425,498.003 540.115,497.752 539.757,497.559 C 539.399,497.364 538.976,497.267 538.485,497.267 C 537.995,497.267 537.525,497.364 537.076,497.559 C 536.627,497.752 536.197,498.003 535.789,498.309 C 535.381,498.615 534.992,498.968 534.625,499.365 C 534.257,499.761 533.92,500.165 533.613,500.573 C 532.695,501.779 531.96,503.029 531.408,504.327 C 530.856,505.624 530.417,506.933 530.091,508.261 C 529.744,509.588 529.524,510.9 529.432,512.195 C 529.34,513.492 529.447,514.743 529.753,515.948 C 529.856,516.356 529.993,516.755 530.167,517.14 C 530.341,517.528 530.556,517.876 530.811,518.183 C 531.065,518.488 531.372,518.739 531.729,518.933 C 532.087,519.127 532.511,519.224 533.001,519.224 C 533.492,519.224 533.961,519.127 534.411,518.933 C 534.86,518.739 535.293,518.488 535.712,518.183 C 536.132,517.876 536.524,517.528 536.892,517.14 C 537.26,516.755 537.597,516.356 537.903,515.948 C 538.801,514.743 539.527,513.492 540.079,512.195 C 540.629,510.9 541.079,509.588 541.427,508.261 C 541.753,506.933 541.963,505.624 542.055,504.327 C 542.147,503.029 542.039,501.779 541.733,500.573 Z M 540.017,500.816 C 540.119,501.921 540.059,503.057 539.833,504.224 C 539.609,505.391 539.353,506.579 539.068,507.785 L 532.664,507.785 C 532.951,506.579 533.277,505.391 533.644,504.224 C 534.012,503.057 534.523,501.921 535.176,500.816 C 535.647,500.04 536.132,499.363 536.632,498.791 C 537.132,498.217 537.699,497.931 538.332,497.931 C 538.639,497.931 538.893,498.008 539.099,498.16 C 539.303,498.313 539.465,498.523 539.588,498.791 C 539.711,499.057 539.803,499.363 539.864,499.711 C 539.925,500.06 539.976,500.428 540.017,500.816 Z M 538.823,508.731 C 538.536,509.936 538.209,511.115 537.841,512.267 C 537.475,513.42 536.964,514.559 536.311,515.683 C 535.861,516.456 535.381,517.131 534.871,517.703 C 534.36,518.275 533.797,518.56 533.185,518.56 C 532.879,518.56 532.619,518.484 532.404,518.331 C 532.189,518.177 532.021,517.968 531.899,517.703 C 531.776,517.436 531.679,517.131 531.607,516.783 C 531.536,516.436 531.489,516.071 531.469,515.683 C 531.388,514.559 531.455,513.42 531.668,512.267 C 531.883,511.115 532.133,509.936 532.419,508.731 Z "/>
		<g id="dp_group100">
			<g id="dp_group101">
				<path id="dp_path102" fill="black" fill-rule="evenodd" d="M 537.977,526.829 L 536.969,525.956 L 534.955,524.209 L 533.109,531.431 L 539.993,528.575 Z "/>
				<path id="dp_path103" fill="black" d="M 602.101,519.933 L 601.584,519.6 L 601.064,519.271 L 600.543,518.945 L 600.02,518.625 L 599.495,518.311 L 598.969,518 L 598.441,517.695 L 597.913,517.396 L 597.383,517.1 L 596.851,516.812 L 596.319,516.528 L 595.785,516.249 L 595.249,515.976 L 594.713,515.708 L 594.175,515.445 L 593.635,515.188 L 593.095,514.937 L 592.555,514.691 L 592.012,514.451 L 591.469,514.217 L 590.924,513.988 L 590.377,513.765 L 589.832,513.548 L 589.285,513.336 L 588.736,513.131 L 588.187,512.931 L 587.636,512.736 L 587.085,512.548 L 586.533,512.367 L 585.981,512.191 L 585.428,512.021 L 584.872,511.857 L 584.317,511.701 L 583.761,511.549 L 583.205,511.405 L 582.648,511.267 L 582.091,511.135 L 581.533,511.008 L 580.973,510.889 L 580.415,510.777 L 579.855,510.671 L 579.293,510.571 L 578.732,510.479 L 578.172,510.392 L 577.609,510.312 L 577.048,510.239 L 576.485,510.173 L 575.923,510.113 L 575.36,510.06 L 574.796,510.016 L 574.233,509.976 L 573.668,509.945 L 573.105,509.921 L 572.541,509.904 L 571.976,509.893 L 571.415,509.889 L 570.851,509.893 L 570.285,509.905 L 569.723,509.923 L 569.157,509.948 L 568.593,509.983 L 568.031,510.023 L 567.467,510.071 L 566.903,510.125 L 566.339,510.189 L 565.776,510.26 L 565.212,510.339 L 564.651,510.424 L 564.088,510.517 L 563.525,510.619 L 562.964,510.728 L 562.403,510.845 L 561.843,510.969 L 561.283,511.103 L 560.723,511.243 L 560.164,511.391 L 559.604,511.548 L 559.047,511.712 L 558.489,511.885 L 557.933,512.065 L 557.377,512.255 L 556.821,512.451 L 556.267,512.657 L 555.713,512.871 L 555.16,513.093 L 554.608,513.323 L 554.057,513.561 L 553.508,513.809 L 552.959,514.064 L 552.409,514.329 L 551.863,514.6 L 551.316,514.881 L 550.771,515.172 L 550.227,515.471 L 549.685,515.777 L 549.143,516.092 L 548.601,516.419 L 548.063,516.751 L 547.525,517.092 L 546.987,517.444 L 546.452,517.804 L 545.917,518.173 L 545.385,518.549 L 544.853,518.937 L 544.324,519.333 L 543.795,519.739 L 543.268,520.152 L 542.743,520.576 L 542.219,521.007 L 541.696,521.449 L 541.175,521.901 L 540.656,522.36 L 540.137,522.829 L 539.621,523.309 L 539.107,523.797 L 538.595,524.295 L 538.084,524.803 L 537.576,525.319 L 537.057,525.855 L 536.969,525.956 L 537.977,526.828 L 538.041,526.753 L 538.528,526.249 L 539.028,525.741 L 539.528,525.244 L 540.029,524.757 L 540.533,524.28 L 541.039,523.811 L 541.544,523.352 L 542.052,522.901 L 542.56,522.46 L 543.072,522.031 L 543.583,521.608 L 544.097,521.195 L 544.611,520.789 L 545.127,520.395 L 545.643,520.009 L 546.161,519.632 L 546.68,519.264 L 547.201,518.905 L 547.723,518.553 L 548.245,518.212 L 548.769,517.879 L 549.295,517.555 L 549.82,517.239 L 550.347,516.932 L 550.875,516.633 L 551.403,516.343 L 551.932,516.063 L 552.463,515.789 L 552.996,515.524 L 553.527,515.267 L 554.06,515.02 L 554.593,514.78 L 555.128,514.549 L 555.664,514.325 L 556.201,514.111 L 556.739,513.903 L 557.275,513.704 L 557.812,513.513 L 558.352,513.329 L 558.892,513.155 L 559.431,512.987 L 559.972,512.828 L 560.513,512.676 L 561.053,512.533 L 561.597,512.396 L 562.139,512.268 L 562.683,512.147 L 563.225,512.035 L 563.771,511.928 L 564.315,511.829 L 564.859,511.739 L 565.404,511.656 L 565.949,511.58 L 566.496,511.512 L 567.041,511.451 L 567.587,511.396 L 568.132,511.351 L 568.679,511.311 L 569.227,511.279 L 569.773,511.253 L 570.32,511.236 L 570.867,511.224 L 571.415,511.223 L 571.963,511.224 L 572.509,511.235 L 573.057,511.252 L 573.604,511.276 L 574.151,511.307 L 574.697,511.344 L 575.245,511.388 L 575.792,511.439 L 576.339,511.496 L 576.885,511.561 L 577.431,511.632 L 577.977,511.709 L 578.524,511.793 L 579.069,511.883 L 579.615,511.98 L 580.159,512.084 L 580.704,512.193 L 581.248,512.309 L 581.792,512.433 L 582.336,512.56 L 582.877,512.696 L 583.42,512.837 L 583.963,512.984 L 584.504,513.137 L 585.044,513.296 L 585.584,513.463 L 586.125,513.633 L 586.664,513.812 L 587.201,513.995 L 587.739,514.184 L 588.275,514.379 L 588.811,514.581 L 589.347,514.788 L 589.881,515 L 590.415,515.217 L 590.947,515.441 L 591.479,515.672 L 592.011,515.907 L 592.54,516.148 L 593.069,516.393 L 593.596,516.645 L 594.124,516.903 L 594.649,517.165 L 595.175,517.433 L 595.697,517.707 L 596.221,517.985 L 596.743,518.268 L 597.26,518.556 L 597.78,518.852 L 598.297,519.149 L 598.815,519.455 L 599.329,519.764 L 599.841,520.079 L 600.355,520.399 L 600.867,520.723 L 601.376,521.053 Z "/>
			</g>
		</g>
		<g id="dp_group104">
			<path id="dp_path105" fill="#ee0000" fill-rule="evenodd" d="M 575.316,463.06 L 567.627,479.053 L 573.564,479.053 L 573.564,545.497 L 577.069,545.497 L 577.069,479.053 L 583.007,479.053 Z "/>
			<g id="dp_group106">
				<g id="dp_group107">
					<path id="dp_path108" fill="black" d="M 567.097,479.387 L 573.231,479.387 L 573.231,545.831 L 577.403,545.831 L 577.403,479.387 L 583.536,479.385 L 575.316,462.292 L 567.097,479.387 L 568.156,478.72 L 575.316,463.828 L 582.477,478.721 L 576.736,478.72 L 576.736,545.164 L 573.897,545.164 L 573.897,478.72 L 568.156,478.72 Z "/>
				</g>
			</g>
		</g>
		<text id="dp_text052" transform="matrix(1,9.4369e-016,-8.88178e-016,1,623.286,476.903)" xml:space="preserve" fill="#152ad4" font-family="Arial" font-size="31" font-weight="700" x="0" y="0">v </text>
		<g id="dp_group110">
			<path id="dp_path111" fill="#152ad4" fill-rule="evenodd" d="M 624.724,484.337 L 610.984,492.464 L 616.021,495.483 L 586.04,545.497 L 589.016,547.281 L 618.996,497.267 L 624.033,500.285 Z "/>
			<g id="dp_group112">
				<g id="dp_group113">
					<path id="dp_path114" fill="black" d="M 610.333,492.463 L 615.565,495.596 L 585.584,545.611 L 589.129,547.737 L 619.109,497.723 L 624.341,500.859 L 625.083,483.739 L 610.333,492.463 L 611.635,492.465 L 624.365,484.936 L 623.725,499.712 L 618.883,496.811 L 588.903,546.825 L 586.496,545.384 L 616.477,495.369 L 611.635,492.465 Z "/>
				</g>
			</g>
		</g>
		<g id="dp_group115">
			<path id="dp_path116" fill="none" fill-rule="evenodd" stroke="black" stroke-width="1.33333" d="M 569.248,590.969 L 565.927,602.489"/>
			<path id="dp_path117" fill="#fad44b" fill-rule="evenodd" stroke="black" stroke-width="1.33333" d="M 582.82,543.883 C 595.823,547.631 603.325,561.211 599.577,574.213 C 595.829,587.216 582.249,594.719 569.247,590.971 C 556.244,587.223 548.741,573.643 552.489,560.64 C 556.237,547.637 569.817,540.135 582.82,543.883 Z "/>
			<path id="dp_path118" fill="none" fill-rule="evenodd" stroke="black" stroke-width="1.33333" d="M 586.141,532.364 L 580.884,550.604"/>
			<text id="dp_text053" transform="matrix(1,9.4369e-016,-8.88178e-016,1,559.238,574.474)" xml:space="preserve" fill="black" font-family="Arial" font-size="24" font-weight="400" font-style="italic" x="0" y="0">+q </text>
		</g>
		<g id="dp_group120">
			<g id="dp_group121">
				<path id="dp_path122" fill="black" d="M 411.233,240.204 L 411.744,240.615 L 412.248,241.027 L 412.749,241.444 L 413.245,241.865 L 413.737,242.288 L 414.225,242.716 L 414.708,243.147 L 415.188,243.584 L 415.636,243.091 L 415.153,242.653 L 414.665,242.217 L 414.172,241.787 L 413.677,241.359 L 413.176,240.935 L 412.672,240.515 L 412.163,240.097 L 411.652,239.684 Z M 418.872,247.185 L 419.315,247.652 L 419.753,248.12 L 420.188,248.593 L 420.616,249.068 L 421.043,249.548 L 421.463,250.029 L 421.88,250.516 L 422.293,251.005 L 422.803,250.576 L 422.387,250.084 L 421.967,249.595 L 421.541,249.108 L 421.112,248.625 L 420.679,248.145 L 420.241,247.669 L 419.8,247.196 L 419.357,246.727 Z M 425.444,255.027 L 425.821,255.544 L 426.192,256.063 L 426.559,256.585 L 426.921,257.112 L 427.28,257.64 L 427.636,258.171 L 427.985,258.707 L 428.332,259.245 L 428.892,258.883 L 428.543,258.344 L 428.191,257.805 L 427.832,257.269 L 427.471,256.736 L 427.105,256.207 L 426.736,255.679 L 426.36,255.155 L 425.983,254.635 Z M 430.952,263.644 L 431.263,264.205 L 431.567,264.771 L 431.867,265.339 L 432.164,265.909 L 432.456,266.481 L 432.745,267.057 L 433.029,267.636 L 433.308,268.217 L 433.908,267.929 L 433.627,267.345 L 433.34,266.761 L 433.051,266.183 L 432.756,265.605 L 432.456,265.029 L 432.153,264.459 L 431.847,263.888 L 431.536,263.321 Z M 435.397,272.953 L 435.641,273.555 L 435.88,274.16 L 436.115,274.768 L 436.344,275.379 L 436.571,275.989 L 436.792,276.605 L 437.009,277.221 L 437.224,277.843 L 437.853,277.624 L 437.639,277.003 L 437.419,276.381 L 437.195,275.763 L 436.968,275.147 L 436.736,274.531 L 436.499,273.92 L 436.26,273.309 L 436.016,272.703 Z M 438.652,282.403 L 438.785,282.871 L 438.961,283.508 L 439.133,284.149 L 439.301,284.791 L 439.465,285.435 L 439.627,286.081 L 439.781,286.729 L 439.933,287.381 L 440.581,287.229 L 440.429,286.577 L 440.272,285.924 L 440.111,285.275 L 439.947,284.625 L 439.776,283.979 L 439.604,283.335 L 439.425,282.692 L 439.292,282.221 Z M 440.893,292.067 L 440.999,292.648 L 441.113,293.313 L 441.224,293.981 L 441.329,294.652 L 441.432,295.323 L 441.529,295.997 L 441.624,296.672 L 441.639,296.793 L 442.3,296.705 L 442.283,296.584 L 442.188,295.904 L 442.091,295.227 L 441.988,294.551 L 441.88,293.877 L 441.769,293.204 L 441.655,292.533 L 441.549,291.949 Z M 442.175,301.548 L 442.225,302.128 L 442.283,302.816 L 442.336,303.507 L 442.384,304.197 L 442.429,304.891 L 442.469,305.585 L 442.505,306.279 L 442.505,306.316 L 443.172,306.295 L 443.169,306.252 L 443.133,305.551 L 443.093,304.851 L 443.048,304.155 L 443,303.459 L 442.947,302.765 L 442.889,302.072 L 442.839,301.489 Z M 442.643,311.187 L 442.647,311.893 L 442.647,312.6 L 442.641,313.309 L 442.632,314.019 L 442.62,314.728 L 442.603,315.44 L 442.579,316.152 L 443.245,316.173 L 443.267,315.456 L 443.284,314.741 L 443.296,314.027 L 443.305,313.315 L 443.311,312.603 L 443.313,311.893 L 443.309,311.184 Z M 442.315,321.165 L 442.26,321.888 L 442.201,322.609 L 442.139,323.331 L 442.073,324.053 L 442.003,324.777 L 441.928,325.501 L 441.848,326.227 L 442.509,326.299 L 442.589,325.571 L 442.664,324.841 L 442.735,324.115 L 442.803,323.389 L 442.865,322.663 L 442.924,321.939 L 442.979,321.216 Z M 441.18,331.32 L 441.068,332.053 L 440.953,332.784 L 440.833,333.516 L 440.709,334.248 L 440.58,334.981 L 440.449,335.713 L 440.311,336.448 L 440.967,336.571 L 441.103,335.833 L 441.236,335.096 L 441.365,334.36 L 441.489,333.623 L 441.609,332.888 L 441.727,332.155 L 441.839,331.421 Z M 439.243,341.595 L 439.073,342.333 L 438.9,343.071 L 438.724,343.807 L 438.541,344.545 L 438.356,345.284 L 438.165,346.023 L 438.107,346.247 L 438.752,346.415 L 438.811,346.188 L 439.001,345.447 L 439.187,344.705 L 439.369,343.964 L 439.548,343.223 L 439.721,342.483 L 439.893,341.744 Z M 436.725,351.192 L 436.501,351.932 L 436.276,352.672 L 436.045,353.412 L 435.811,354.149 L 435.572,354.889 L 435.329,355.628 L 435.284,355.763 L 435.916,355.973 L 435.961,355.836 L 436.204,355.095 L 436.445,354.352 L 436.68,353.609 L 436.911,352.867 L 437.139,352.124 L 437.363,351.384 Z M 433.703,360.284 L 433.515,360.799 L 433.239,361.537 L 432.96,362.273 L 432.676,363.011 L 432.389,363.748 L 432.097,364.485 L 431.987,364.756 L 432.605,365.007 L 432.716,364.731 L 433.008,363.991 L 433.297,363.251 L 433.581,362.511 L 433.863,361.769 L 434.139,361.028 L 434.329,360.516 Z M 430.14,369.176 L 429.941,369.633 L 429.616,370.367 L 429.288,371.1 L 428.955,371.833 L 428.619,372.565 L 428.277,373.297 L 428.163,373.54 L 428.765,373.823 L 428.88,373.577 L 429.221,372.843 L 429.56,372.108 L 429.893,371.372 L 430.224,370.636 L 430.549,369.9 L 430.751,369.443 Z M 426.06,377.844 L 425.779,378.4 L 425.405,379.127 L 425.028,379.852 L 424.648,380.577 L 424.261,381.3 L 423.872,382.024 L 423.837,382.084 L 424.421,382.407 L 424.456,382.341 L 424.848,381.615 L 425.235,380.887 L 425.617,380.159 L 425.997,379.431 L 426.371,378.701 L 426.655,378.145 Z M 421.449,386.345 L 421.032,387.064 L 420.611,387.78 L 420.183,388.495 L 419.753,389.209 L 419.319,389.923 L 418.88,390.635 L 419.448,390.984 L 419.887,390.269 L 420.321,389.553 L 420.753,388.836 L 421.181,388.119 L 421.605,387.4 L 422.025,386.681 Z M 416.164,394.883 L 415.699,395.589 L 415.228,396.292 L 414.753,396.993 L 414.273,397.695 L 413.792,398.393 L 413.304,399.092 L 413.851,399.473 L 414.339,398.772 L 414.823,398.071 L 415.303,397.367 L 415.78,396.663 L 416.253,395.957 L 416.721,395.251 Z M 410.297,403.249 L 409.783,403.939 L 409.263,404.625 L 408.74,405.311 L 408.212,405.995 L 407.681,406.677 L 407.144,407.359 L 407.667,407.772 L 408.204,407.088 L 408.737,406.403 L 409.268,405.716 L 409.793,405.028 L 410.313,404.339 L 410.831,403.649 Z M 403.867,411.384 L 403.313,412.044 L 402.755,412.699 L 402.196,413.351 L 401.635,413.999 L 401.071,414.643 L 400.504,415.283 L 401.003,415.725 L 401.569,415.083 L 402.136,414.436 L 402.7,413.785 L 403.261,413.131 L 403.82,412.473 L 404.376,411.813 Z M 397.061,419.048 L 396.48,419.664 L 395.896,420.275 L 395.311,420.883 L 394.724,421.487 L 394.135,422.087 L 393.541,422.683 L 394.016,423.152 L 394.607,422.553 L 395.199,421.951 L 395.788,421.344 L 396.376,420.736 L 396.963,420.123 L 397.547,419.507 Z M 389.953,426.181 L 389.348,426.752 L 388.741,427.319 L 388.132,427.883 L 387.523,428.441 L 386.911,428.996 L 386.295,429.548 L 386.74,430.044 L 387.356,429.489 L 387.971,428.932 L 388.583,428.371 L 389.195,427.807 L 389.804,427.237 L 390.409,426.667 Z M 382.576,432.776 L 381.951,433.303 L 381.324,433.823 L 380.695,434.34 L 380.064,434.853 L 379.432,435.364 L 378.797,435.869 L 379.213,436.389 L 379.848,435.881 L 380.483,435.371 L 381.116,434.855 L 381.748,434.335 L 382.377,433.812 L 383.005,433.285 Z M 374.968,438.821 L 374.324,439.303 L 373.679,439.777 L 373.033,440.248 L 372.385,440.715 L 371.736,441.18 L 371.085,441.639 L 371.469,442.183 L 372.12,441.721 L 372.772,441.256 L 373.423,440.787 L 374.071,440.313 L 374.719,439.836 L 375.365,439.357 Z M 367.128,444.333 L 366.501,444.745 L 365.841,445.173 L 365.18,445.599 L 364.519,446.019 L 363.856,446.435 L 363.192,446.848 L 363.088,446.911 L 363.437,447.479 L 363.541,447.413 L 364.208,447 L 364.873,446.581 L 365.537,446.159 L 366.201,445.733 L 366.864,445.303 L 367.493,444.891 Z M 358.973,449.361 L 358.517,449.623 L 357.845,450.004 L 357.173,450.38 L 356.5,450.752 L 355.825,451.121 L 355.151,451.485 L 354.473,451.845 L 354.788,452.435 L 355.465,452.072 L 356.143,451.705 L 356.82,451.336 L 357.496,450.961 L 358.171,450.583 L 358.845,450.201 L 359.304,449.94 Z M 350.208,454.02 L 349.725,454.257 L 349.044,454.585 L 348.363,454.909 L 347.681,455.229 L 346.997,455.545 L 346.313,455.857 L 345.628,456.165 L 345.903,456.773 L 346.588,456.463 L 347.275,456.151 L 347.961,455.832 L 348.645,455.512 L 349.332,455.185 L 350.016,454.855 L 350.501,454.62 Z M 340.831,458.205 L 340.143,458.48 L 339.455,458.752 L 338.768,459.019 L 338.079,459.281 L 337.391,459.539 L 336.701,459.793 L 336.011,460.044 L 336.24,460.671 L 336.931,460.417 L 337.623,460.163 L 338.313,459.903 L 339.005,459.64 L 339.697,459.371 L 340.388,459.099 L 341.079,458.824 Z M 331.184,461.676 L 330.493,461.895 L 329.803,462.107 L 329.113,462.316 L 328.423,462.52 L 327.733,462.719 L 327.043,462.916 L 326.352,463.105 L 326.528,463.748 L 327.221,463.556 L 327.915,463.359 L 328.609,463.157 L 329.303,462.953 L 329.997,462.744 L 330.691,462.529 L 331.384,462.313 Z M 321.525,464.327 L 320.833,464.485 L 320.145,464.639 L 319.457,464.788 L 318.768,464.932 L 318.08,465.072 L 317.393,465.208 L 316.703,465.339 L 316.828,465.995 L 317.519,465.861 L 318.211,465.725 L 318.901,465.583 L 319.593,465.439 L 320.287,465.289 L 320.98,465.133 L 321.672,464.977 Z M 311.904,466.14 L 311.219,466.239 L 310.535,466.332 L 309.852,466.42 L 309.169,466.504 L 308.487,466.584 L 307.807,466.66 L 307.123,466.729 L 307.192,467.393 L 307.876,467.321 L 308.561,467.245 L 309.247,467.165 L 309.935,467.081 L 310.623,466.991 L 311.309,466.897 L 311.997,466.801 Z M 302.355,467.105 L 301.703,467.141 L 301.028,467.173 L 300.353,467.2 L 299.681,467.224 L 299.009,467.241 L 298.337,467.256 L 297.667,467.264 L 297.571,467.265 L 297.579,467.932 L 297.675,467.931 L 298.348,467.92 L 299.023,467.905 L 299.7,467.888 L 300.377,467.864 L 301.055,467.837 L 301.735,467.805 L 302.389,467.772 Z M 292.34,467.179 L 291.677,467.149 L 291.017,467.113 L 290.356,467.075 L 289.699,467.029 L 289.043,466.981 L 288.387,466.928 L 287.732,466.871 L 287.569,466.853 L 287.505,467.517 L 287.671,467.532 L 288.331,467.592 L 288.992,467.645 L 289.653,467.693 L 290.316,467.739 L 290.98,467.777 L 291.645,467.813 L 292.308,467.845 Z M 282.541,466.245 L 281.896,466.148 L 281.255,466.044 L 280.615,465.936 L 279.976,465.824 L 279.337,465.708 L 278.703,465.587 L 278.068,465.46 L 277.433,465.329 L 277.3,465.983 L 277.937,466.113 L 278.577,466.24 L 279.217,466.361 L 279.859,466.48 L 280.503,466.592 L 281.148,466.7 L 281.795,466.804 L 282.44,466.904 Z M 272.429,464.12 L 271.809,463.948 L 271.192,463.771 L 270.577,463.591 L 269.964,463.404 L 269.352,463.213 L 268.743,463.019 L 268.135,462.817 L 267.527,462.612 L 267.313,463.244 L 267.924,463.449 L 268.537,463.651 L 269.152,463.848 L 269.769,464.039 L 270.388,464.228 L 271.008,464.411 L 271.628,464.588 L 272.251,464.763 Z M 262.748,460.807 L 262.156,460.56 L 261.569,460.309 L 260.985,460.053 L 260.403,459.792 L 259.82,459.527 L 259.241,459.255 L 258.665,458.98 L 258.091,458.699 L 257.797,459.299 L 258.377,459.58 L 258.959,459.857 L 259.543,460.129 L 260.128,460.397 L 260.716,460.661 L 261.305,460.92 L 261.897,461.173 L 262.489,461.423 Z M 253.576,456.289 L 253.02,455.965 L 252.468,455.639 L 251.919,455.305 L 251.371,454.968 L 250.825,454.625 L 250.283,454.279 L 249.743,453.928 L 249.204,453.569 L 248.836,454.124 L 249.377,454.483 L 249.923,454.839 L 250.471,455.188 L 251.019,455.533 L 251.572,455.873 L 252.127,456.209 L 252.684,456.539 L 253.24,456.865 Z M 244.996,450.543 L 244.48,450.141 L 243.967,449.736 L 243.459,449.325 L 242.955,448.913 L 242.453,448.496 L 241.957,448.075 L 241.465,447.652 L 240.977,447.223 L 240.537,447.724 L 241.031,448.153 L 241.525,448.581 L 242.027,449.005 L 242.531,449.425 L 243.04,449.843 L 243.553,450.256 L 244.069,450.664 L 244.585,451.068 Z M 237.228,443.676 L 236.776,443.216 L 236.328,442.755 L 235.888,442.288 L 235.449,441.82 L 235.015,441.347 L 234.587,440.872 L 234.16,440.392 L 233.739,439.909 L 233.237,440.347 L 233.661,440.832 L 234.091,441.315 L 234.524,441.795 L 234.961,442.271 L 235.403,442.744 L 235.848,443.213 L 236.299,443.68 L 236.751,444.143 Z M 230.523,435.939 L 230.137,435.427 L 229.757,434.913 L 229.381,434.396 L 229.011,433.877 L 228.644,433.355 L 228.281,432.828 L 227.923,432.3 L 227.567,431.767 L 227.012,432.137 L 227.371,432.671 L 227.732,433.204 L 228.097,433.733 L 228.467,434.261 L 228.843,434.785 L 229.221,435.305 L 229.604,435.824 L 229.989,436.339 Z M 224.881,427.413 L 224.563,426.857 L 224.249,426.296 L 223.94,425.735 L 223.636,425.169 L 223.336,424.601 L 223.039,424.031 L 222.747,423.459 L 222.459,422.881 L 221.861,423.18 L 222.152,423.757 L 222.447,424.335 L 222.747,424.911 L 223.049,425.481 L 223.356,426.052 L 223.668,426.619 L 223.984,427.183 L 224.303,427.744 Z M 220.303,418.188 L 220.051,417.589 L 219.804,416.987 L 219.561,416.385 L 219.323,415.78 L 219.088,415.172 L 218.859,414.561 L 218.632,413.951 L 218.411,413.333 L 217.784,413.56 L 218.008,414.177 L 218.235,414.793 L 218.467,415.409 L 218.704,416.02 L 218.943,416.631 L 219.188,417.237 L 219.437,417.843 L 219.687,418.444 Z M 216.784,408.34 L 216.599,407.705 L 216.417,407.069 L 216.241,406.432 L 216.069,405.791 L 215.901,405.149 L 215.737,404.505 L 215.576,403.859 L 215.544,403.72 L 214.896,403.875 L 214.931,404.016 L 215.092,404.665 L 215.256,405.315 L 215.427,405.961 L 215.599,406.605 L 215.777,407.248 L 215.959,407.889 L 216.144,408.527 Z M 214.447,398.621 L 214.323,397.957 L 214.204,397.292 L 214.089,396.627 L 213.979,395.959 L 213.873,395.288 L 213.771,394.617 L 213.673,393.941 L 213.667,393.896 L 213.008,393.992 L 213.015,394.037 L 213.112,394.713 L 213.215,395.389 L 213.323,396.063 L 213.433,396.736 L 213.548,397.407 L 213.669,398.075 L 213.791,398.741 Z M 213.099,389.149 L 213.036,388.5 L 212.977,387.812 L 212.92,387.124 L 212.867,386.433 L 212.819,385.743 L 212.773,385.049 L 212.735,384.353 L 212.068,384.391 L 212.109,385.089 L 212.155,385.785 L 212.203,386.481 L 212.256,387.175 L 212.313,387.868 L 212.375,388.559 L 212.435,389.211 Z M 212.567,379.459 L 212.559,378.753 L 212.556,378.047 L 212.556,377.34 L 212.561,376.631 L 212.571,375.921 L 212.583,375.212 L 212.603,374.501 L 211.936,374.483 L 211.919,375.199 L 211.907,375.913 L 211.897,376.625 L 211.892,377.337 L 211.889,378.047 L 211.895,378.756 L 211.9,379.464 Z M 212.837,369.495 L 212.888,368.773 L 212.943,368.052 L 213.001,367.331 L 213.064,366.609 L 213.129,365.887 L 213.2,365.163 L 213.276,364.439 L 212.612,364.369 L 212.539,365.099 L 212.468,365.825 L 212.4,366.551 L 212.337,367.277 L 212.279,368.001 L 212.224,368.725 L 212.173,369.447 Z M 213.915,359.349 L 214.023,358.619 L 214.135,357.887 L 214.249,357.156 L 214.369,356.424 L 214.493,355.692 L 214.623,354.959 L 214.755,354.225 L 214.099,354.108 L 213.967,354.844 L 213.837,355.58 L 213.713,356.317 L 213.593,357.052 L 213.476,357.785 L 213.364,358.52 L 213.256,359.253 Z M 215.795,349.083 L 215.959,348.344 L 216.129,347.607 L 216.303,346.869 L 216.479,346.133 L 216.661,345.395 L 216.847,344.656 L 216.907,344.427 L 216.261,344.259 L 216.201,344.493 L 216.016,345.235 L 215.833,345.976 L 215.655,346.717 L 215.481,347.457 L 215.311,348.197 L 215.144,348.936 Z M 218.26,339.488 L 218.477,338.747 L 218.701,338.008 L 218.927,337.268 L 219.157,336.528 L 219.392,335.791 L 219.631,335.052 L 219.677,334.913 L 219.045,334.703 L 218.999,334.844 L 218.757,335.588 L 218.523,336.331 L 218.292,337.073 L 218.064,337.816 L 217.84,338.557 L 217.62,339.299 Z M 221.236,330.38 L 221.416,329.88 L 221.688,329.141 L 221.964,328.403 L 222.243,327.667 L 222.527,326.929 L 222.813,326.192 L 223.105,325.455 L 222.487,325.209 L 222.195,325.949 L 221.905,326.689 L 221.621,327.429 L 221.34,328.171 L 221.064,328.912 L 220.792,329.653 L 220.609,330.153 Z M 224.945,321.035 L 225.261,320.307 L 225.587,319.573 L 225.915,318.84 L 226.248,318.107 L 226.584,317.375 L 226.927,316.643 L 226.321,316.363 L 225.981,317.097 L 225.643,317.832 L 225.309,318.568 L 224.979,319.304 L 224.653,320.04 L 224.335,320.768 Z M 229.055,312.268 L 229.424,311.54 L 229.797,310.813 L 230.175,310.088 L 230.555,309.363 L 230.941,308.64 L 231.332,307.916 L 230.745,307.599 L 230.355,308.325 L 229.968,309.053 L 229.585,309.781 L 229.205,310.509 L 228.832,311.239 L 228.46,311.967 Z M 233.753,303.595 L 234.171,302.876 L 234.592,302.16 L 235.02,301.445 L 235.449,300.731 L 235.884,300.017 L 236.323,299.305 L 235.755,298.956 L 235.316,299.671 L 234.881,300.387 L 234.449,301.104 L 234.021,301.821 L 233.597,302.54 L 233.177,303.259 Z M 239.039,295.057 L 239.504,294.351 L 239.975,293.648 L 240.449,292.947 L 240.929,292.245 L 241.411,291.547 L 241.899,290.848 L 241.352,290.467 L 240.864,291.168 L 240.38,291.869 L 239.9,292.573 L 239.423,293.277 L 238.949,293.983 L 238.481,294.689 Z M 244.905,286.691 L 245.42,286.001 L 245.94,285.315 L 246.463,284.629 L 246.991,283.945 L 247.521,283.263 L 248.059,282.581 L 247.536,282.168 L 246.999,282.852 L 246.465,283.537 L 245.935,284.224 L 245.409,284.912 L 244.889,285.601 L 244.372,286.291 Z M 251.335,278.556 L 251.889,277.896 L 252.448,277.241 L 253.007,276.589 L 253.568,275.943 L 254.132,275.299 L 254.7,274.656 L 254.199,274.216 L 253.633,274.859 L 253.067,275.505 L 252.503,276.155 L 251.941,276.809 L 251.383,277.467 L 250.825,278.127 Z M 258.141,270.893 L 258.723,270.277 L 259.305,269.664 L 259.891,269.057 L 260.479,268.453 L 261.068,267.853 L 261.661,267.257 L 261.187,266.788 L 260.596,267.387 L 260.004,267.989 L 259.413,268.596 L 258.825,269.205 L 258.24,269.819 L 257.656,270.435 Z M 265.249,263.759 L 265.855,263.188 L 266.461,262.621 L 267.069,262.057 L 267.68,261.499 L 268.292,260.944 L 268.907,260.393 L 268.461,259.897 L 267.847,260.451 L 267.232,261.008 L 266.619,261.569 L 266.008,262.133 L 265.399,262.703 L 264.793,263.273 Z M 272.624,257.165 L 273.252,256.639 L 273.879,256.117 L 274.508,255.6 L 275.137,255.087 L 275.769,254.576 L 276.404,254.071 L 275.988,253.551 L 275.353,254.059 L 274.719,254.569 L 274.087,255.085 L 273.455,255.605 L 272.825,256.129 L 272.197,256.653 Z M 280.235,251.117 L 280.877,250.637 L 281.523,250.163 L 282.169,249.692 L 282.816,249.225 L 283.465,248.761 L 284.117,248.301 L 283.733,247.757 L 283.081,248.22 L 282.429,248.684 L 281.78,249.153 L 281.131,249.627 L 280.483,250.104 L 279.837,250.584 Z M 288.073,245.608 L 288.701,245.195 L 289.36,244.767 L 290.021,244.343 L 290.683,243.923 L 291.347,243.507 L 292.011,243.093 L 292.112,243.032 L 291.763,242.464 L 291.661,242.528 L 290.995,242.941 L 290.328,243.36 L 289.664,243.783 L 289,244.207 L 288.339,244.637 L 287.708,245.051 Z M 296.227,240.581 L 296.684,240.319 L 297.356,239.937 L 298.029,239.561 L 298.703,239.187 L 299.376,238.819 L 300.052,238.455 L 300.728,238.093 L 300.413,237.507 L 299.737,237.868 L 299.059,238.235 L 298.383,238.605 L 297.707,238.98 L 297.031,239.359 L 296.356,239.74 L 295.896,240.003 Z M 304.993,235.92 L 305.476,235.683 L 306.156,235.355 L 306.839,235.032 L 307.521,234.711 L 308.204,234.395 L 308.888,234.083 L 309.572,233.776 L 309.3,233.168 L 308.613,233.477 L 307.927,233.789 L 307.241,234.108 L 306.556,234.429 L 305.871,234.755 L 305.185,235.085 L 304.7,235.323 Z M 314.372,231.736 L 315.059,231.46 L 315.745,231.188 L 316.435,230.923 L 317.123,230.659 L 317.812,230.401 L 318.5,230.147 L 319.191,229.897 L 318.964,229.271 L 318.273,229.523 L 317.58,229.777 L 316.888,230.037 L 316.197,230.301 L 315.505,230.569 L 314.813,230.841 L 314.124,231.117 Z M 324.017,228.264 L 324.708,228.045 L 325.397,227.833 L 326.088,227.625 L 326.779,227.42 L 327.468,227.221 L 328.159,227.025 L 328.851,226.835 L 328.672,226.192 L 327.98,226.385 L 327.287,226.581 L 326.592,226.783 L 325.899,226.988 L 325.205,227.196 L 324.511,227.411 L 323.817,227.627 Z M 333.679,225.613 L 334.367,225.455 L 335.056,225.303 L 335.745,225.153 L 336.433,225.008 L 337.121,224.869 L 337.809,224.732 L 338.499,224.601 L 338.373,223.945 L 337.684,224.079 L 336.991,224.216 L 336.3,224.357 L 335.607,224.503 L 334.915,224.652 L 334.223,224.807 L 333.529,224.963 Z M 343.299,223.8 L 343.983,223.701 L 344.667,223.608 L 345.349,223.521 L 346.032,223.436 L 346.715,223.356 L 347.396,223.281 L 348.079,223.211 L 348.009,222.547 L 347.327,222.62 L 346.64,222.695 L 345.955,222.775 L 345.267,222.86 L 344.581,222.949 L 343.892,223.043 L 343.205,223.139 Z M 352.847,222.835 L 353.5,222.799 L 354.173,222.767 L 354.848,222.74 L 355.52,222.717 L 356.193,222.699 L 356.864,222.684 L 357.532,222.675 L 357.627,222.676 L 357.627,222.009 L 357.529,222.011 L 356.853,222.02 L 356.177,222.035 L 355.501,222.053 L 354.824,222.076 L 354.147,222.103 L 353.468,222.135 L 352.812,222.168 Z M 362.861,222.761 L 363.525,222.791 L 364.185,222.827 L 364.845,222.867 L 365.503,222.911 L 366.16,222.96 L 366.816,223.013 L 367.471,223.069 L 367.632,223.087 L 367.696,222.423 L 367.529,222.408 L 366.869,222.349 L 366.211,222.296 L 365.548,222.247 L 364.885,222.203 L 364.223,222.163 L 363.557,222.127 L 362.893,222.095 Z M 372.66,223.695 L 373.305,223.792 L 373.947,223.896 L 374.587,224.004 L 375.225,224.116 L 375.864,224.232 L 376.5,224.353 L 377.135,224.48 L 377.768,224.611 L 377.901,223.957 L 377.265,223.827 L 376.625,223.7 L 375.984,223.579 L 375.343,223.46 L 374.699,223.348 L 374.053,223.24 L 373.407,223.136 L 372.761,223.036 Z M 382.772,225.82 L 383.393,225.992 L 384.011,226.169 L 384.625,226.351 L 385.239,226.536 L 385.849,226.727 L 386.46,226.921 L 387.068,227.123 L 387.675,227.328 L 387.888,226.696 L 387.279,226.491 L 386.665,226.289 L 386.049,226.092 L 385.433,225.901 L 384.815,225.713 L 384.195,225.529 L 383.572,225.352 L 382.951,225.177 Z M 392.455,229.133 L 393.045,229.38 L 393.632,229.631 L 394.217,229.887 L 394.8,230.148 L 395.381,230.413 L 395.96,230.685 L 396.537,230.96 L 397.111,231.241 L 397.404,230.641 L 396.825,230.36 L 396.243,230.083 L 395.659,229.811 L 395.075,229.543 L 394.487,229.279 L 393.896,229.02 L 393.304,228.767 L 392.713,228.517 Z M 401.627,233.651 L 402.183,233.975 L 402.735,234.301 L 403.284,234.635 L 403.831,234.972 L 404.377,235.315 L 404.92,235.661 L 405.459,236.012 L 405.997,236.371 L 406.365,235.816 L 405.824,235.457 L 405.28,235.101 L 404.732,234.752 L 404.183,234.407 L 403.631,234.067 L 403.076,233.731 L 402.519,233.401 L 401.963,233.075 Z M 410.205,239.397 L 410.723,239.799 L 411.236,240.205 L 411.649,239.683 L 411.133,239.276 L 410.616,238.872 Z "/>
			</g>
		</g>
		<text id="dp_text054" transform="matrix(1,9.4369e-016,-8.88178e-016,1,26.6008,630.511)" xml:space="preserve" fill="#2db064" font-family="Arial" font-size="31" font-weight="400" x="0" y="0">Plane </text>
		<text id="dp_text055" transform="matrix(1,9.4369e-016,-8.88178e-016,1,26.6008,630.511)" xml:space="preserve" fill="#2db064" font-family="Arial" font-size="31" font-weight="400" x="86.9253" y="0">perp.</text>
		<text id="dp_text056" transform="matrix(1,9.4369e-016,-8.88178e-016,1,26.6008,630.511)" xml:space="preserve" fill="#2db064" font-family="Arial" font-size="31" font-weight="400" x="156.859" y="0"> to </text>
		<text id="dp_text057" transform="matrix(1,9.4369e-016,-8.88178e-016,1,26.6008,630.511)" xml:space="preserve" fill="#2db064" font-family="Arial" font-size="31" font-weight="700" x="199.423" y="0">B  </text>
		<text id="dp_text058" transform="matrix(1,9.4369e-016,-8.88178e-016,1,26.6008,630.511)" xml:space="preserve" fill="#2db064" font-family="Arial" font-size="31" font-weight="400" x="0" y="35.1307">to</text>
		<text id="dp_text059" transform="matrix(1,9.4369e-016,-8.88178e-016,1,26.6008,630.511)" xml:space="preserve" fill="#2db064" font-family="Arial" font-size="31" font-weight="400" x="25.572" y="35.1307"> show </text>
		<text id="dp_text060" transform="matrix(1,9.4369e-016,-8.88178e-016,1,26.6008,630.511)" xml:space="preserve" fill="#2db064" font-family="Arial" font-size="31" font-weight="400" x="114.213" y="35.1307">circular  </text>
		<text id="dp_text061" transform="matrix(1,9.4369e-016,-8.88178e-016,1,26.6008,630.511)" xml:space="preserve" fill="#2db064" font-family="Arial" font-size="31" font-weight="400" x="0" y="70.2613">projection</text>
		<text id="dp_text062" transform="matrix(1,9.4369e-016,-8.88178e-016,1,26.6008,630.511)" xml:space="preserve" fill="black" font-family="Arial" font-size="31" font-weight="400" x="133.007" y="70.2613"> </text>
		<text id="dp_text063" transform="matrix(1,9.4369e-016,-8.88178e-016,1,26.6008,630.511)" xml:space="preserve" fill="#2db064" font-family="Arial" font-size="31" font-weight="700" x="0" y="105.392"> </text>
		<path id="dp_path133" fill="none" fill-rule="evenodd" stroke="black" stroke-width="0.706667" d="M 292.833,415.685 L 279.833,430.185 L 264.333,419.185"/>
	</g>
</svg>